<svg viewBox="122.68799999999999 38.879999999999995 191.376 273.024" version="1.1" xmlns:xlink="http://www.w3.org/1999/xlink" xmlns="http://www.w3.org/2000/svg" style="max-height: 500px" width="191.376" height="273.024">
<defs>
<clipPath id="clip_0">
<path d="M0 432H432V0H0Z" transform="matrix(1,0,0,-1,0,432)" data-index="0"></path>
</clipPath>
</defs>
<g>

<g clip-path="url(#clip_0)">
<path fill="#f0ead6" d="M0 0C-.042-.312-.204-.45-.485-.412-.587-.398-.702-.339-.831-.234L-2.83 1.397-2.827 1.42C-2.819 1.482-2.774 1.523-2.692 1.543L-1.013 .174C-.956 .126-.901 .098-.847 .09-.706 .071-.625 .144-.603 .308-.584 .449-.637 .611-.764 .795L-.319 .556C-.074 .427 .033 .242 0 0" transform="matrix(1,0,0,-1,220.6534,80.26749)" data-index="2"></path>
<path fill="#f0ead6" d="M0 0 .007-1.826C-.219-1.728-.483-1.658-.78-1.617-1.14-1.64-1.387-1.754-1.521-1.96-1.627-2.13-1.675-2.406-1.667-2.788L-1.072-3.158C-1.091-2.995-1.104-2.875-1.104-2.797-1.105-2.472-.909-2.279-.511-2.222-.191-2.213 .18-2.361 .606-2.663L.594 .109ZM1.4-4.867 2.102-5.322C2.117-5.349 2.124-5.376 2.124-5.402 2.124-5.484 2.093-5.524 2.03-5.525 2.006-5.524 1.979-5.517 1.943-5.504L-2.198-2.727C-2.283-2.564-2.327-2.398-2.327-2.229-2.328-1.895-2.195-1.626-1.926-1.42-1.687-1.236-1.394-1.142-1.047-1.14L-.782-1.139-.784-.099C-1.175-.114-1.505-.044-1.773 .113-2.093 .349-2.302 .52-2.402 .628L1.379 .633Z" transform="matrix(1,0,0,-1,214.706,74.622898)" data-index="3"></path>
<path fill="#f0ead6" d="M0 0 .667-.564C.684-.622 .681-.657 .66-.67 .631-.689 .58-.693 .51-.682L-.78 .283-.621 2.774-1.191 3.192-1.27 1.942C-1.294 1.567-1.44 1.389-1.708 1.406-1.779 1.41-1.86 1.43-1.95 1.464L-2.559 1.917C-2.621 2.063-2.647 2.196-2.64 2.316-2.623 2.599-2.439 2.711-2.087 2.654L-2.054 3.194C-2.77 3.282-3.15 3.007-3.19 2.369-3.202 2.193-3.17 2.03-3.094 1.883L-.62-.408C-.61-.434-.604-.459-.605-.477-.607-.517-.641-.534-.704-.53-.724-.522-.742-.518-.755-.516L-3.538 1.905C-3.81 2.227-3.935 2.547-3.914 2.865-3.895 3.168-3.783 3.406-3.578 3.577-3.371 3.749-3.116 3.825-2.811 3.806-2.501 3.787-2.242 3.678-2.034 3.48L-2.015 3.799-2.444 4.092-2.339 4.244-.604 3.06-.478 5.041-1.173 4.979C-1.544 4.945-1.791 4.932-1.909 4.941-2.439 4.974-2.789 5.039-2.952 5.134-3.28 5.325-3.518 5.532-3.668 5.755L.339 5.511Z" transform="matrix(1,0,0,-1,220.6646,79.77319)" data-index="4"></path>
<path fill="#f0ead6" d="M0 0C-.011-.105-.072-.142-.183-.109L-1.453 .972-.878 6.144-.054 6.053-.658 .617-.002 .085ZM1.052 5.93 .59 5.992 .137 6.522C.051 6.589-.04 6.628-.138 6.639-.364 6.664-.488 6.576-.51 6.375-.521 6.283-.495 6.188-.435 6.095L-.876 6.154C-1.088 6.299-1.231 6.461-1.304 6.64-1.34 6.764-1.352 6.88-1.34 6.986-1.318 7.182-1.233 7.33-1.088 7.428-.941 7.526-.765 7.563-.562 7.54-.379 7.52-.204 7.454-.039 7.343 .019 7.302 .146 7.152 .339 6.895Z" transform="matrix(1,0,0,-1,222.9365,80.565)" data-index="5"></path>
<path fill="#f0ead6" d="M0 0 .065 .41C-.004 .429-.094 .447-.204 .465-.631 .533-.976 .423-1.238 .133-1.463-.112-1.608-.456-1.673-.9L-1.357-1.221C-1.277-.853-1.126-.555-.903-.332-.654-.076-.353 .034 0 0M2.187-3.504C2.19-3.54 2.19-3.568 2.186-3.589 2.176-3.657 2.135-3.686 2.065-3.675L2.003-3.665 .836-2.552 1.188-.361 .805-.009 .354-2.821 .972-3.39C.978-3.434 .98-3.471 .975-3.499 .963-3.57 .904-3.589 .794-3.556L-2.45-.584-2.38-.153C-2.311 .28-2.152 .628-1.904 .888-1.621 1.187-1.272 1.303-.858 1.236-.489 1.177-.163 1.028 .126 .788L.333 2.077C-.098 2.09-.473 2.127-.788 2.193-1.372 2.316-1.755 2.61-1.936 3.077L2.351 2.387 2.278 2.205 1.135 2.054 .861 .338 1.245-.016 1.34 .572 2.026-.045 1.562-2.935Z" transform="matrix(1,0,0,-1,225.5072,77.6225)" data-index="6"></path>
<path fill="#f0ead6" d="M0 0-.456 .108-.854 .681C-.933 .756-1.02 .803-1.118 .824-1.338 .872-1.47 .796-1.512 .599-1.53 .507-1.517 .411-1.466 .312L-1.899 .416C-2.096 .58-2.221 .756-2.275 .94-2.299 1.069-2.299 1.185-2.276 1.288-2.237 1.483-2.137 1.621-1.984 1.704-1.828 1.787-1.65 1.806-1.449 1.764-1.27 1.725-1.101 1.642-.948 1.515-.893 1.468-.782 1.306-.616 1.032ZM-1.639-5.796C-1.662-5.9-1.725-5.929-1.832-5.886L-2.986-4.683-1.902 .405-1.091 .233-2.232-5.116-1.63-5.71Z" transform="matrix(1,0,0,-1,230.9184,75.92511)" data-index="7"></path>
<path fill="#f0ead6" d="M0 0-.642-2.434C-.562-2.484-.475-2.522-.385-2.545-.285-2.571-.178-2.585-.067-2.585L.603-.05ZM-.286-5.701-3.535-2.407C-3.599-2.346-3.601-2.283-3.54-2.218-3.442-2.266-3.355-2.3-3.279-2.32-3.086-2.37-2.943-2.328-2.848-2.192-2.802-2.124-2.731-1.963-2.644-1.707-2.337-1.299-1.952-1.154-1.492-1.275-1.409-1.297-1.302-1.341-1.172-1.404L-.785 .064C-.931 .096-1.187 .159-1.552 .255-2.254 .434-2.7 .789-2.891 1.322L1.483 .169 .086-5.127 .669-5.832C.665-5.875 .645-5.905 .605-5.925 .568-5.944 .531-5.942 .493-5.917 .433-5.865 .378-5.81 .327-5.752L-.622-4.69-.202-3.098C-.3-3.036-.468-2.896-.707-2.68-.73-2.769-.752-2.852-.773-2.927-.914-3.463-1.286-3.692-1.887-3.614L-.164-5.534C-.125-5.582-.11-5.623-.119-5.656-.135-5.719-.178-5.74-.247-5.722-.261-5.719-.273-5.711-.286-5.701" transform="matrix(1,0,0,-1,233.4066,77.11511)" data-index="8"></path>
<path fill="#f0ead6" d="M0 0C-.029-.314-.185-.458-.467-.432-.569-.423-.687-.368-.821-.269L-2.887 1.274-2.885 1.298C-2.88 1.36-2.836 1.403-2.755 1.427L-1.02 .131C-.961 .085-.904 .059-.85 .054-.709 .041-.63 .117-.615 .282-.602 .423-.663 .583-.797 .762L-.342 .542C-.092 .424 .022 .243 0 0" transform="matrix(1,0,0,-1,216.172,79.93411)" data-index="9"></path>
<path fill="#f0ead6" d="M0 0C-3.155 3.54-4.944 8.92-2.854 13.499-.661 17.781 3.415 20.853 7.555 23.111 5.884 21.437 4.209 19.832 2.608 18.167 1.095 16.526-.613 14.93-1.575 12.91-3.569 8.774-2.219 3.864 0 0" transform="matrix(1,0,0,-1,216.9335,108.7684)" data-index="10"></path>
<path fill="#f0ead6" d="M0 0C5.097 2.957 8.322 8.131 8.009 14.088 7.983 15.388 7.738 16.769 7.555 18.057 7.825 17.207 8.1 16.345 8.306 15.467 9.734 8.935 6.231 2.407 0 0" transform="matrix(1,0,0,-1,218.11,108.7684)" data-index="11"></path>
<path fill="#f0ead6" d="M0 0C0-1.289-1.045-2.333-2.333-2.333-3.622-2.333-4.667-1.289-4.667 0-4.667 1.289-3.622 2.333-2.333 2.333-1.045 2.333 0 1.289 0 0" transform="matrix(1,0,0,-1,222.2733,98.600498)" data-index="12"></path>
<path fill="#f0ead6" d="M0 0C-1.782 0-3.231-1.45-3.231-3.231-3.231-5.013-1.782-6.463 0-6.463 1.782-6.463 3.231-5.013 3.231-3.231 3.231-1.45 1.782 0 0 0M0-6.963C-2.058-6.963-3.731-5.289-3.731-3.231-3.731-1.174-2.058 .5 0 .5 2.058 .5 3.731-1.174 3.731-3.231 3.731-5.289 2.058-6.963 0-6.963" transform="matrix(1,0,0,-1,219.9399,95.36911)" data-index="13"></path>
<path fill="#f0ead6" d="M0 0C3.542-.487 7.654-1.352 9.852-4.39 7.257-1.922 3.348-1.846 0-2 0-2 0 0 0 0" transform="matrix(1,0,0,-1,229.1841,89.71161)" data-index="14"></path>
<path fill="#f0ead6" d="M0 0C3.689-.743 7.573-1.709 10.516-4.138 7.289-2.322 3.457-2.071-.152-1.994-.152-1.994 0 0 0 0" transform="matrix(1,0,0,-1,229.2602,94.90729)" data-index="15"></path>
<path fill="#f0ead6" d="M0 0C2.698-.582 5.341-1.332 7.779-2.59 6.467-2.272 5.14-2.118 3.813-2.033 2.491-1.954 1.143-1.935-.145-1.995Z" transform="matrix(1,0,0,-1,229.2565,100.299289)" data-index="16"></path>
<path fill="#f0ead6" d="M0 0C3.906 .142 7.972 .612 11.651-1.146 11.651-1.146 10.497-2.78 10.497-2.78 7.552-.772 3.504-.479 0 0" transform="matrix(1,0,0,-1,202.3684,86.42291)" data-index="17"></path>
<path fill="#f0ead6" d="M0 0C3.118 .792 6.525 .907 9.483-.788 9.483-.788 8.295-2.397 8.295-2.397 6.175-.448 2.889 .119 0 0" transform="matrix(1,0,0,-1,202.3685,91.6156)" data-index="18"></path>
<path fill="#f0ead6" d="M0 0C2.728 .871 5.8 .553 8.401-.757L7.303-2.428C5.336-.736 2.653 .181 0 0" transform="matrix(1,0,0,-1,202.8505,96.453)" data-index="19"></path>
<path fill="#f0ead6" d="M0 0C-9.256 11.201-3.997 24.747 6.139 33.214 10.869 37.396 16.247 40.724 21.766 43.676 26.174 46.159 31.6 47.889 34.534 52.158 36.346 55.874 28.129 55.825 25.843 55.952 17.452 56.318 8.905 56.142 .647 54.841-10.443 53.12-24.216 49.301-27.553 37.16-31.288 25.649-29.182 12.678-23.389 2.24-21.338-1.624-18.333-5.352-15.361-8.537-.894-24.57 5.559-46.083-4.24-66.301-9.704-77.729-18.499-87.08-28.388-94.733-28.388-94.733-28.444-94.667-28.444-94.667-19.129-86.574-10.692-77.042-5.741-65.644 2.918-46.062-3.705-25.711-17.597-10.511-25.32-2.599-30.032 8.078-31.176 19.038-31.873 25.301-31.533 31.743-29.735 37.8-27.422 47.472-17.998 53.201-8.949 55.602 3.157 58.966 15.861 58.806 28.281 57.956 30.635 57.712 33.187 57.458 35.209 56.026 37.775 54.186 36.637 51.096 34.614 49.354 31.122 46.136 26.581 44.424 22.447 42.344 16.937 39.549 11.569 36.383 6.849 32.388-3.281 24.249-8.759 11.297 0 0" transform="matrix(1,0,0,-1,262.1362,168.324)" data-index="20"></path>
<path fill="#f0ead6" d="M0 0C-4.619 12.482-17.695 9.13-20.204 20.331-20.47 21.452-20.624 22.871-20.795 24-21.927 32.159-24.548 41.026-31.579 45.987-34.972 48.69-39.652 49.367-42.844 52.441-43.312 52.956-43.793 53.533-44 54.4-44.257 55.247-43.819 56.424-43.074 56.91-41.259 58.168-39.034 57.927-37.053 57.764-34.582 57.396-32.264 57.155-29.833 57.146-20.085 57.277-10.144 58.012-.345 57.969 29.603 55.71 26.75 23.53 24.908 1.415 23.73-12.486 25.25-18.311 35.081-28.606 44.941-39.314 52.824-51.19 49.069-66.468 47.278-76.039 40.99-83.997 33.974-90.401 29.857-94.3 25.77-98.044 22.956-102.951 20.183-107.675 18.383-113.069 18.506-118.479 18.599-123.873 20.593-129.268 24.573-132.816 32.961-139.84 45.166-141.838 55.902-140.368 61.52-139.649 66.915-137.791 71.979-135.202 57.778-144.574 36.875-145.216 23.287-134.241 14.082-126.061 15.054-111.625 21.025-101.812 26.721-91.786 37.58-85.893 42.962-75.669 44.988-72.051 46.139-67.926 46.878-63.847 49.22-50.644 41.462-39.808 32.931-30.52 29.047-26.207 24.913-21.665 23.109-15.929 21.269-10.221 21.644-4.191 22.035 1.625 22.447 7.355 22.938 13.027 23.053 18.687 23.42 31.736 21.445 48.593 7.385 53.478 5.05 54.395 1.585 54.854-.445 55.108-10.323 55.268-19.953 54.69-29.886 54.692-32.355 54.746-34.906 55.027-37.349 55.431-38.826 55.614-40.509 55.753-41.697 55.1-41.864 54.916-41.811 55.081-41.805 54.884-40.973 53.047-38.837 52.255-37.025 51.336-32.431 49.337-27.91 46.283-25.123 41.976-21.296 36.135-19.924 29.155-19.233 22.332-18.958 19.455-18.002 16.572-15.732 14.646-13.99 13.07-11.78 11.982-9.638 10.777-5.212 8.552-1.486 4.792 0 0" transform="matrix(1,0,0,-1,177.2473,155.2821)" data-index="21"></path>
<path fill="#f0ead6" d="M0 0C-2.126-2.867-6.496-8.551-8.718-11.342-9.772-12.705-10.994-14.169-12.077-15.522-12.416-15.953-12.885-16.547-13.51-16.88-15.39-18.003-18.062-16.966-18.696-14.87-20.9-5.361-19.754 6.982-12.138 13.835-13.681 11.997-14.88 9.964-15.68 7.776-18.146 1.334-18.334-5.991-17.177-12.684-17.107-12.941-16.976-13.669-16.894-13.916-16.745-15.07-15.443-15.781-14.43-15.216-14.136-15.052-13.959-14.884-13.504-14.348-12.355-13.045-11.132-11.59-9.953-10.326-7.163-7.268-3.005-2.779 0 0" transform="matrix(1,0,0,-1,199.025,179.8796)" data-index="22"></path>
<path fill="#f0ead6" d="M0 0C1.592 8.418 8.506 16.104 17.301 16.845 18.504 17.001 19.742 16.896 20.953 16.889 10.773 16.197 3.366 9.374 0 0" transform="matrix(1,0,0,-1,189.1197,94.101718)" data-index="23"></path>
<path fill="#f0ead6" d="M0 0C.059 8.748-4.325 17.406-12.236 21.457-13.316 22.087-14.498 22.52-15.624 23.111-14.422 22.726-13.17 22.421-12.013 21.915-3.5 18.574 1.611 8.943 0 0" transform="matrix(1,0,0,-1,253.2051,103.9675)" data-index="24"></path>
<path fill="#f0ead6" d="M0 0C5.08 6.575 15.808 10.909 23 5.222 14.852 8.095 6.945 4.072 0 0" transform="matrix(1,0,0,-1,210.9989,174.48941)" data-index="25"></path>
<path fill="#f0ead6" d="M0 0C5.08 6.575 15.808 10.909 23 5.222 14.852 8.095 6.945 4.072 0 0" transform="matrix(1,0,0,-1,206.983,166.61319)" data-index="26"></path>
<path fill="#f0ead6" d="M0 0C2.837 6.341 11.272 10.519 17.667 6.889 15.918 6.864 14.305 6.953 12.725 6.643 7.843 5.905 3.763 3.117 0 0" transform="matrix(1,0,0,-1,217.6032,183.2894)" data-index="27"></path>
<path fill="#f0ead6" d="M0 0C2.617 5.323 9.979 8.259 15.291 5.216 9.623 5.202 4.605 3.229 0 0" transform="matrix(1,0,0,-1,223.5226,190.2709)" data-index="28"></path>
</g>
<text font-family="TrajanPro" font-size="23.7399" transform="matrix(1 0 -0 1 0 432)" xml:space="preserve" fill="#f0ead6"><tspan x="99.0576 125.17149 147.96179 158.40735 174.81162 189.29296 197.00843 211.48976 225.54378 240.02512 254.91004 277.70036 294.31828 316.79997" y="-93.9121">WHITE ELEPHANT</tspan></text>
<text font-family="TrajanPro" font-size="12.4113" transform="matrix(1 0 -0 1 0 432)" xml:space="preserve" fill="#f0ead6"><tspan x="150.6348 163.66666 174.68914 183.26534 188.41602 199.40001 211.1535 215.18718 222.96782 228.24262 238.1729 246.7491 257.05049 266.4086 273.9795" y="-76.1958">MOTION PICTURES</tspan></text>
</g>
</svg>